/* XPM */
static char *_e5e6a782b8541799eb4831af5891a55fmnTDRLhL9TrffTg[] = {
/* columns rows colors chars-per-pixel */
"64 64 153 2 ",
"   c None",
".  c #8D6C9F",
"X  c #936D9F",
"o  c #9C6E9E",
"O  c #90709F",
"+  c #99779F",
"@  c #9B7A9E",
"#  c #A46F9E",
"$  c #A6709D",
"%  c #AD709D",
"&  c #A07F9E",
"*  c #B1719D",
"=  c #BE739C",
"-  c #8E6DA0",
";  c #916FA0",
":  c #8F71A3",
">  c #9173A3",
",  c #9B7CA1",
"<  c #947CAB",
"1  c #997EAC",
"2  c #A27FAC",
"3  c #AC7FAA",
"4  c #CD749B",
"5  c #D7769C",
"6  c #DA759A",
"7  c #E47799",
"8  c #E8779A",
"9  c #ED7899",
"0  c #A5849D",
"q  c #A9879D",
"w  c #AC8B9D",
"e  c #B08F9D",
"r  c #B2909C",
"t  c #B8979C",
"y  c #BA989C",
"u  c #9F80A1",
"i  c #9681AD",
"p  c #9981AF",
"a  c #9B85B1",
"s  c #9D8AB5",
"d  c #9D92B8",
"f  c #A384A2",
"g  c #A788A3",
"h  c #AB8DA3",
"j  c #A985AF",
"k  c #B496A4",
"l  c #B79AA5",
"z  c #BA9EA5",
"x  c #BA9DAB",
"c  c #A18CB7",
"v  c #A08EB9",
"b  c #A595BD",
"n  c #A598BF",
"m  c #BFA3A6",
"M  c #C29F9B",
"N  c #C9A69B",
"B  c #CDAC9A",
"V  c #D7B499",
"C  c #D8B69A",
"Z  c #DDBA99",
"A  c #DB9BB9",
"S  c #C2A6A6",
"D  c #C6AAA7",
"F  c #CAAFA7",
"G  c #CEB3A8",
"H  c #D1B6A8",
"J  c #D5BCA9",
"K  c #EECA97",
"L  c #E4C199",
"P  c #EECB98",
"I  c #F1CF97",
"U  c #F6D397",
"Y  c #F6D49C",
"T  c #DCC3AB",
"R  c #E1C9AA",
"E  c #EAD3AC",
"W  c #F6D6A0",
"Q  c #F7D9A7",
"!  c #F2DCAD",
"~  c #F8D9AB",
"^  c #F7DCB0",
"/  c #F8DEB5",
"(  c #F6E0AD",
")  c #F9E3AE",
"_  c #F8E0B6",
"`  c #F8E2BD",
"'  c #A79AC1",
"]  c #A4A3C3",
"[  c #ADA3C7",
"{  c #ACA4C9",
"}  c #A7ACC9",
"|  c #ACADCC",
" . c #B1A6C9",
".. c #B4ACCE",
"X. c #B1AED0",
"o. c #ACB7D0",
"O. c #A2BBDF",
"+. c #B4B4D4",
"@. c #BAB4D3",
"#. c #B6B8D7",
"$. c #B7BAD9",
"%. c #BABEDB",
"&. c #A2BDE1",
"*. c #D2AFCC",
"=. c #BBC1DE",
"-. c #BDC4E1",
";. c #BFC9E3",
":. c #AADCF9",
">. c #ACE3FF",
",. c #C3C3DE",
"<. c #F9E4C3",
"1. c #F8E7C9",
"2. c #FAEFDE",
"3. c #C5C7E1",
"4. c #C1CCE6",
"5. c #C2CCE7",
"6. c #C2CDE7",
"7. c #C1CDE6",
"8. c #C6CEE6",
"9. c #C2CDE7",
"0. c #CACFE7",
"q. c #C4CFE9",
"w. c #C5D0E9",
"e. c #C7D2EA",
"r. c #C6D1EA",
"t. c #C9D3EB",
"y. c #CDD3E9",
"u. c #CDD3EA",
"i. c #CCD0E8",
"p. c #CAD5EB",
"a. c #CAD5ED",
"s. c #CBD6EC",
"d. c #CFD7EC",
"f. c #CFD6EC",
"g. c #CCD6ED",
"h. c #CBD6EC",
"j. c #CDD8EE",
"k. c #CED9EE",
"l. c #CCD8ED",
"z. c #CED8EC",
"x. c #D0D7ED",
"c. c #D1DBEF",
"v. c #D0D8EE",
"b. c #CFDBF0",
"n. c #D3DDF0",
"m. c #D2DCF0",
"M. c #D3DEF1",
"N. c #D3DFF3",
"B. c #D2DDF2",
"V. c #D4DFF2",
"C. c #D5DFF3",
"Z. c #D5DFF3",
"A. c #D5E0F3",
/* pixels */
"                                                                                                                                ",
"                                                                                                                                ",
"                                                                                                            . . - . . . .       ",
"                                                                                                  - . . . . . - . . o X . .     ",
"                                                                                            . - . . . . # % 4 4 6 9 9 9 # .     ",
"                                                                                        . . . . # = 6 9 9 9 9 9 9 9 9 9 # -     ",
"                                                                                    . . . X = 6 9 9 9 9 9 9 9 9 9 9 9 9 X .     ",
"                                                                                . . . . X 7 9 9 9 9 9 9 9 9 9 9 9 9 9 8 . .     ",
"                                                                              - . >  .1 - o 7 9 9 9 9 9 9 9 9 9 9 9 9 6 . .     ",
"                                                                            . . c y.A.x.1 - # 7 9 9 9 9 9 9 9 9 9 9 9 4 . .     ",
"                                                                        . . -  .C.A.A.A.d.1 . o 8 9 9 9 9 9 9 9 9 9 9 = .       ",
"                                                                      . . > %.A.A.A.A.A.C.8.< . $ 9 9 9 9 9 9 9 9 9 9 % .       ",
"                                                                    - . > 3.A.A.A.A.A.A.l.6.-.a 3 9 9 9 9 9 9 9 9 9 9 o .       ",
"                                                                  . . ; 3.A.A.A.A.A.A.d.6.6.6.6.5.A 9 9 9 9 9 9 9 9 7 . .       ",
"                                                                  . - ,.A.A.A.A.A.C.d.6.6.;.6.6.6.5.3 # 7 9 9 9 9 9 4 . .       ",
"                                                                . . @.C.A.A.A.n...s - > a { 4.5.6.4.a ; o 7 9 9 9 9 * .         ",
"                                                              . -  .A.A.A.B.t.< . . . . - - i -.6.5.3.< - ; 9 9 9 9 X X         ",
"                                                            . . b C.A.A.A.B.p - < &.:.:.&.< - < 4.4.6.-.< - $ 9 9 4 . .         ",
"                                                          . . s m.C.A.A.A.X.- < :.>.>.>.>.:.> - { 6.6.6.-.a j 9 9 # .           ",
"                                                        . . 1 z.C.C.A.A.A.a - &.>.>.>.>.>.>.O.. a 6.6.6.6.6.6.*.5 - .           ",
"                                                      . . > 0.A.C.A.A.A.A.> : :.>.>.>.>.>.>.:.. - 6.6.6.6.6.6.6.2 .             ",
"                                                      . - ,.A.A.C.A.A.n.;.: - :.>.>.>.>.>.>.:.. ; 6.6.6.6.6.6.X.. .             ",
"                                                    . . @.A.A.A.A.A.n.e.;.p - &.>.>.>.>.>.>.O.- a 5.5.6.6.6.4.< .               ",
"                                                  . .  .A.A.A.A.A.n.w.6.;.] . < :.>.>.>.>.:.< - { 5.6.6.6.6.b - -               ",
"                                          . . . . . b C.A.A.A.A.A.w.6.6.6.;.i - < O.:.:.O.< - < ;.6.6.6.4.+.. .                 ",
"                                  - . . . . - . . s c.C.A.A.A.C.t.6.6.;.6.6.-.< . - . . . . p -.6.6.6.6.%.> .                   ",
"                          . . . . . - f m J f - 1 x.A.A.A.A.C.e.;.6.-.{ ;.6.6.6.{ p : : i { ;.6.6.6.6.=.> - .                   ",
"                  . . . . . . f m T ! ) ) l ; > 0.A.A.A.A.A.e.6.6.6.' - a ;.6.6.6.6.6.6.;.6.6.6.6.6.-.< . -                     ",
"              . . . X f S T ! ) ) ) ) ) D . > ,.C.A.A.A.C.t.6.6.6.6.-.> - ' 6.6.6.6.6.6.6.6.6.6.6.-.< . .                       ",
"            . . > G ! ) ) ) ) ) ) ) ) J . . @.A.A.A.A.A.p.6.6.6.6.6.6.%.s #.6.6.6.6.6.6.6.6.6.6.#.> . .                         ",
"            . > R ) ) ) ) ) ) ) ) ) R ; .  .A.A.A.A.A.a.6.6.%.- s 6.6.6.6.6.6.6.6.6.6.6.6.6.6...- . .                           ",
"          - . H ) ) ) ) ) ) ) ) ) E , . b C.A.A.A.A.f.6.6.6.=.> - s 5.6.6.6.6.6.6.6.6.6.6.6.{ - . .                             ",
"        . - D ) ) ) ) ) ) ) ) ) ! @ . c n.A.A.A.C.d.6.6.6.6.6.#.> - ;.6.6.6.6.6.6.6.6.6.6.b . .                                 ",
"      . . k ) ) ) ) ) ) ) ) ) ) h . 1 v.A.A.A.A.d.6.6.=.| 6.6.6.%.#.6.6.6.6.6.6.6.6.6.;.a . -                                   ",
"      . . . . . . . . . . . . . . > t.C.A.A.A.j.;.6.6.v - b 6.6.6.6.6.6.6.6.6.6.6.6.-.< . .                                     ",
"        . . . . . . . . . . . . . ..A.A.A.A.b.6.6.6.4.#.- . { 6.6.6.6.6.6.6.6.6.6.%.> . .                                       ",
"                                . a v.A.A.b.w.6.6.6.6.6.#.a #.6.6.6.6.6.6.6.6.6.+.- . .                                         ",
"                                . . s j.a.6.6.;.s ' 6.6.6.6.6.6.6.6.6.6.6.6.6.{ - . .                                           ",
"                              . . . . p -.6.6.-.- - ' ;.6.6.6.6.6.6.6.6.q.;.' - .                                               ",
"                              . < } > . a ;.6.5.#.- : 6.6.6.6.6.6.6.6.6.;.a - - -                                               ",
"                            . . ] o.} > . a ;.6.6.=.#.6.6.6.6.6.6.6.6.-.< - - .                                                 ",
"                            . i o.o.o.} : . p ;.6.6.6.6.6.6.6.6.6.6.-.> . , . -                                                 ",
"                          - . d o.o.o.o.} : . p ;.6.6.6.6.6.6.6.;.+.: - g G . .                                                 ",
"                    . - . . . : ] o.o.o.o.} : . p ;.6.6.6.6.6.6.{ - - k ! z .                                                   ",
"                  . . X e Z t - : ] o.o.o.o.} > . p ;.6.6.4.4.n - - D ) ) u .                                                   ",
"                . . @ L U I ! x . : ] o.o.o.o.} > . p ;.6.4.c . - G ) ) ! . .                                                   ",
"              . . q K U Y 1.2.2.x . O ] o.o.o.o.} : - 1 | 1 . > T ) ) ) J . .                                                   ",
"              . + K U U <.2.2.2.2.m . : ] o.o.} a . - . . - , E _ ) ) ) m .                                                     ",
"            . . V U U Y 2.2.2.2.2.2.x - - d s - . . . . . . ! ) ) ) ) ) f .                                                     ",
"            . @ U U U ^ 2.2.2.2.2.2.Y t - . . . .       . . ) ) ) ) ) ! . .                                                     ",
"          . . N U U U ` 2.2.2.2.2.` U N . . .           . . ) ) ) ) ) J . .                                                     ",
"          . . C U U U <.2.2.2.2./ U U @ .               . . ) ) ) ) ) z .                                                       ",
"          . . P U U U ^ ` / Q U U U B . .               . . ) ) ) ) ) f .                                                       ",
"          . + U U U U U U U U U U L O .                 . . ) ) ) ) ! . .                                                       ",
"          . q U U U U U U U U U Z + . .                 . . ) ) ) ) F . .                                                       ",
"          . w U U U U U U U P M . . .                   . . ) ) ) T O .                                                         ",
"          . y U U U I Z N r O . . .                     . . ) ) H . . -                                                         ",
"          . & w 0 , . . . . . .                         . . ) S . . .                                                           ",
"          . . . - . . . -                               . . k . .                                                               ",
"                                                        . . . .                                                                 ",
"                                                          . .                                                                   ",
"                                                                                                                                ",
"                                                                                                                                ",
"                                                                                                                                "
};
