/* XPM */
static char *_96065fc46fd4490db25121ffcdd16cdBsDnfIkfrUhsvCwA[] = {
/* columns rows colors chars-per-pixel */
"64 64 224 2 ",
"   c None",
".  c #434A53",
"X  c #434B53",
"o  c #444B53",
"O  c #444C53",
"+  c #434B54",
"@  c #434B55",
"#  c #444A54",
"$  c #444B54",
"%  c #454B54",
"&  c #444A55",
"*  c #444B55",
"=  c #434C54",
"-  c #444C54",
";  c #454C54",
":  c #444C55",
">  c #454C55",
",  c #454D56",
"<  c #464D56",
"1  c #474E56",
"2  c #474E57",
"3  c #484F57",
"4  c #484F58",
"5  c #495059",
"6  c #4A515A",
"7  c #4B515A",
"8  c #4B525B",
"9  c #4C525B",
"0  c #4C535B",
"q  c #4C535C",
"w  c #4D535C",
"e  c #4D545D",
"r  c #4E545D",
"t  c #4E555D",
"y  c #4F555E",
"u  c #50565E",
"i  c #50575F",
"p  c #515760",
"a  c #505860",
"s  c #525861",
"d  c #525962",
"f  c #535A62",
"g  c #545B63",
"h  c #545A64",
"j  c #555B64",
"k  c #555C64",
"l  c #565C65",
"z  c #565D66",
"x  c #575E66",
"c  c #585F66",
"v  c #585E67",
"b  c #595F67",
"n  c #595F68",
"m  c #5D626B",
"M  c #5C636C",
"N  c #5E646D",
"B  c #5E656E",
"V  c #60676E",
"C  c #62686F",
"Z  c #616770",
"A  c #626871",
"S  c #636971",
"D  c #656B72",
"F  c #656B73",
"G  c #656C74",
"H  c #666C74",
"J  c #676D76",
"K  c #696E76",
"L  c #696F76",
"P  c #6A7077",
"I  c #6B7179",
"U  c #6B717A",
"Y  c #6D737A",
"T  c #6D747C",
"R  c #6E757C",
"E  c #6F757C",
"W  c #70767E",
"Q  c #70777E",
"!  c #727880",
"~  c #737981",
"^  c #737A81",
"/  c #757B82",
"(  c #747B83",
")  c #767C83",
"_  c #777C83",
"`  c #777E86",
"'  c #797E84",
"]  c #7A7F85",
"[  c #787F86",
"{  c #797F86",
"}  c #7C8289",
"|  c #7D838A",
" . c #7E848C",
".. c #7F858C",
"X. c #80868D",
"o. c #81868D",
"O. c #80868E",
"+. c #82888F",
"@. c #85898F",
"#. c #858A90",
"$. c #848A91",
"%. c #848A92",
"&. c #858B93",
"*. c #868C92",
"=. c #878C93",
"-. c #868D94",
";. c #878E94",
":. c #888E96",
">. c #898F96",
",. c #8D939A",
"<. c #8E949B",
"1. c #8F969C",
"2. c #90959D",
"3. c #93979C",
"4. c #91979F",
"5. c #95999E",
"6. c #9399A0",
"7. c #949AA1",
"8. c #979CA3",
"9. c #979DA3",
"0. c #989EA5",
"q. c #9BA0A7",
"w. c #9BA1A8",
"e. c #9EA3AA",
"r. c #9EA4AB",
"t. c #A1A5A9",
"y. c #A0A5AB",
"u. c #A1A5AB",
"i. c #A1A7AD",
"p. c #A2A8AD",
"a. c #A2A8AF",
"s. c #A8ABAF",
"d. c #A3AAB0",
"f. c #A4AAB0",
"g. c #A5ABB1",
"h. c #A6ABB2",
"j. c #A9AEB5",
"k. c #ACB2B8",
"l. c #ADB2B8",
"z. c #AFB5BB",
"x. c #B0B6BB",
"c. c #B1B6BC",
"v. c #B2B7BD",
"b. c #B6B9BD",
"n. c #B6BABF",
"m. c #B5BBC0",
"M. c #B7BCC2",
"N. c #B7BCC3",
"B. c #BABDC0",
"V. c #BBBDC1",
"C. c #B8BDC3",
"Z. c #B9BFC4",
"A. c #BBC0C7",
"S. c #BEC1C4",
"D. c #BDC2C8",
"F. c #BFC5CA",
"G. c #BFC4CB",
"H. c #C0C3C7",
"J. c #C0C5CB",
"K. c #C1C6CB",
"L. c #C2C6CC",
"P. c #C3C8CE",
"I. c #C4C9CF",
"U. c #C5CACF",
"Y. c #C5CBD0",
"T. c #C7CBD1",
"R. c #C8CBD1",
"E. c #C8CED3",
"W. c #CCCED1",
"Q. c #CDCFD1",
"!. c #CBCFD5",
"~. c #CBD1D6",
"^. c #CFD1D6",
"/. c #CCD2D7",
"(. c #CED3D7",
"). c #CED3D8",
"_. c #CED3D9",
"`. c #CFD4D9",
"'. c #D0D5DA",
"]. c #D0D5DB",
"[. c #D2D6DB",
"{. c #D2D7DC",
"}. c #D2D7DD",
"|. c #D2D7DE",
" X c #D3D8DD",
".X c #D3D8DE",
"XX c #D4D8DE",
"oX c #D5DADF",
"OX c #D6DBDF",
"+X c #DADBDD",
"@X c #DADCDD",
"#X c #D8DCE1",
"$X c #D9DDE1",
"%X c #D9DDE2",
"&X c #D9DEE2",
"*X c #DADEE2",
"=X c #DEE0E4",
"-X c #E0E1E3",
";X c #E2E3E4",
":X c #E0E4E7",
">X c #E3E4E6",
",X c #E4E5E6",
"<X c #E6E7E8",
"1X c #E4E7EA",
"2X c #E8EAED",
"3X c #E8EBED",
"4X c #EAEBEC",
"5X c #EBECED",
"6X c #EBEDEF",
"7X c #EFF1F3",
"8X c #F1F2F2",
"9X c #F0F2F4",
"0X c #F3F3F4",
"qX c #F2F3F5",
"wX c #F3F4F4",
"eX c #F6F7F8",
"rX c #F8F9F9",
"tX c #F9FAFB",
"yX c gray98",
"uX c #FBFBFB",
"iX c gray99",
"pX c #FCFDFD",
"aX c #FEFEFE",
"sX c white",
/* pixels */
"                                                                                                                                ",
"                                                                                                                                ",
"                                                                                                                                ",
"                                  + % % % + %                                                                                   ",
"                              % % + % + % > % o >                                                                               ",
"                            + % o o 4 m B > + O + %                                                                             ",
"                            % + X X.R. X X~.+.O % +                                                                             ",
"                          % + % =..X.X X X X{.>.+ % %                                                                           ",
"                          % + d (. X*X7X7X*X X].d + %                                                                           ",
"                        % + % >.{..XeXsXsXeX X{...% + +                                                                         ",
"              o %       + % % L..X{.sXsXsXiX.X.Xi.+ % +                                                                         ",
"        = % % + + %     % + Y .X{.{.2XsXsX3X.X{.P.% + %                                                                         ",
"        % + % % %     X + + h.}. X X X*X*X X X X.Xg o %                                                                         ",
"        + % + X       % % d ]. X X X X X.X X X X.X/ % +                                                                         ",
"                    % + % >. X X X X X X{. X.X{..X9.+ % =                                                                       ",
"                    + % > L. X X X X X X X X{..X.XN.% + %                                                                       ",
"                    % + Y .X X X X X X X X X X X X].0 % %                                                                       ",
"                  + + % h..X X X X X X X X X X X X XY o %                                                                       ",
"                  % % d ]. X X X X X X X X X X X X X1.O +                                                                       ",
"                = % + >..X{. X X X X X X X X X X X X~.+.Z                                                                       ",
"                + % > K. X X.X.X X X.X.X X X X X.X.X.X{. X                                                                      ",
"              X % % Y .X X X{..X X].k.%.H i 3 6 d G =.k.}.                                                                      ",
"              % o o h. X X X.X(.7.g + % + % o o + % + % j                                                                       ",
"              + O d ]. X X Xx.x o O % + % > > > % + % + % % >                                                                   ",
"            > + % >..X.X.X6.> % % > v =.v.U.{. X~.k.=.d o % + % %                                                               ",
"            o % > G.{..X,.+ > + d r.{..X X X X X{.{.{.].9.u % + + %                                                             ",
"          o % + Y {..Xa.% % X Y ~. X.X.X X X X X X X X X XR.Q O % + %                                                           ",
"          % + % h..XK.0 o o ( ]. X{..X{. X X X X X X X X X X Xw.8 % + % +                                                       ",
"          % + d ]. X( % + M (. X X X X X X X X X X X X X X X X XL.G % % % +                                                     ",
"        X + = ;..XC.> + > Z. X X X X X X X X X X X X X X X X X XXX}.1.> + % + %                                                 ",
"        > + % n.{.| O % ` .X.X X X X X X X X X X X X X X X X X XXX}..XZ.M + % + +                                               ",
"        X % 6 }.{.0 O % c..X{. X X X X X X X X X X X X X X X X X X X.X}._.&.% % % + %                                           ",
"        % o B  XN.% O d {. X X X X X X X X X X X X X X X X X X X X X X X X Xc.j X o o X                                         ",
"        % o H }.r.% % Q  X X X X X X X X X X X X X X X X X X X X X X X X X X.X!.} O o % % +                                     ",
"        + % D }.4.> O |  X X X X X X X X X X X X X X X X X X X X X X X X X X.X.X.Xa.u O + % +                                   ",
"        % + t .X1.o O >. X X X X X X X X X X X X X X X X X X X X X X X X X X{..X.X.XY./ % + % +                                 ",
"        + % + ~.0.X %  .{..X{. X X X X X X X X X X X X X X X X X X X X X X X X X{. X X6XC.w % + % +                             ",
"        O % ^ }.h.X % T .X.X.X{. X X X X X X X X X X X X X X X X X X X X X X X X.X.X XwXsX>XY % + % %                           ",
"            }.{.G.+ + w `..X.X.X X X X X X X X X X X X X X X.X.X X X X X X X X X.X.X@XsXsXsXiXs.4 % + % %                       ",
"              .X.Xx % + n.{..X.X X X X X X X X X X X X X{..X{..X X X X X X X X X.X XeXsXsXsXsXsX+XC % + % +                     ",
"              }..X+.o % ] 7X>X#XOXOX X@X#X X#XOX X@X#X X#XOX X#XOX X@X#X X#XOX*X1XtXsXsXsXsXsXsXsXtX5.> % + % =                 ",
"                .XK.> O % Q.sXsXsXsXsXsXsXsXsXsXsXsXsXsXsXsXsXsXsXsXsXsXsXsXsXsXsXsXsXsXsXsXsXsXsXsXsXQ.v % + + >               ",
"                  .X] o + n 8XsXsXsXsXsXsXsXsXsXsXsXsXsXsXsXsXsXsXsXsXsXsXsXsXsXsXsXsXsXsXsXsXsXsXsXsXsXwX#.o % X %             ",
"                    T.d % + K wXsXsXsXsXsXsXsXsXsXsXsXsXsXsXsXsXsXsXsXsXsXsXsXsXsXsXsXsXsXsXsXsXsXsXsXsXsXsXS.u % + % +         ",
"                      a.> + % D -XsXsXsXsXsXsXsXsXsXsXsXsXsXsXsXsXsXsXsXsXsXsXsXsXsXsXsXsXsXsXsXsXsXsXsXsXsXsX6X/ % % +         ",
"                        ^ % + + 6 t.wXsXsXsXsXsXsXsXsXsXsXsXsXsXsXsXsXsXsXsXsXsXsXsXsXsXsXsXsXsXsXsXsXsXsXsXsXsXsX] + %         ",
"                            > % > % t @.C.>XsXsXsXsXsXsXsXsXsXsXsXsXsXsXsXsXsXsXsXsXsXsX4X<X<X<X<X,X,X2X<X<X<X<X;XP % +         ",
"                              % + % % % o + t Y 3.n.@XtXsXsXsXsXsXsXsXsXsXsXsXsXsXsXtXK X o % + % o o X + % + % + % + %         ",
"                                  B o % + % + % + % + 3 A X.i.A.*X4X3X4X3X4X3X3X4X4X^.O % o o o % % + % o o o % % + %           ",
"                                  .XA.4.T d % o % + + % + % % % < z ! <.j.I.}..X.X X].| x x x x x x x x x v j > + %             ",
"                                  .X.X.X.X{.m o + % % + % + % + % % % + + + a U ;.a.A..X.X.X.X.X X{..X.X X X.X.X                ",
"                                  X.n.}..Xa.X X %           = % % + + % + % % + + + o 6 H ..q.N.]..X{..X X X{..X                ",
"                                + % 6 !..XA % +                       > % + % % % + % + % + % + > N ] 6.z.!..X.X                ",
"                                % + % U / % + %                                   % + % + % + % O O + % > > e. X                ",
"                                  % % + > X % =                                             + > o % % o > % x                   ",
"                                  O + % + % X                                                         > + +                     ",
"                                    % % +                                                                                       ",
"                                    O + %                                                                                       ",
"                                    > + +                                                                                       ",
"                                    = % %                                                                                       ",
"                              % % + % + % %                                                                                     ",
"  % + % + % % + % %         % + + % + % + + %         % % + % + % + % % % + + % % + % + % + % % % + + % + % % X           % %   ",
"  % % + % + % + + %         + % % + + % % + %         % + % + % + % % + % + % + + % + % + % % + % + % + % + % o           % +   ",
"    + % + % + %                                         > + % + % + + % + % + % % + % + % + + % + % + % + %                     "
};
