/* XPM */
static char *ce2e09896af7447cbd1a5beccfa78ec271aiUBi2xPyvgBcq[] = {
/* columns rows colors chars-per-pixel */
"36 64 163 2 ",
"   c #76796C",
".  c #68777C",
"X  c #69777C",
"o  c #727C77",
"O  c #D0453F",
"+  c #954E4D",
"@  c #9A4C49",
"#  c #9C5148",
"$  c #9C5251",
"%  c #985658",
"&  c #96595B",
"*  c #B04C45",
"=  c #B84B42",
"-  c #A85448",
";  c #A25B4A",
":  c #93634C",
">  c #9E724C",
",  c #A5774C",
"<  c #846E7B",
"1  c #C64440",
"2  c #C84441",
"3  c #788176",
"4  c #88865F",
"5  c #9C9255",
"6  c #9A945D",
"7  c #AB9C4F",
"8  c #BF974C",
"9  c #AA9D58",
"0  c #B6A54F",
"q  c #BCAA4F",
"w  c #B5A959",
"e  c #84886D",
"r  c #989769",
"t  c #939570",
"y  c #959C74",
"u  c #A89C60",
"i  c #A9A564",
"p  c #B9B364",
"a  c #AAA27C",
"s  c #C29C4C",
"d  c #CAA84D",
"f  c #C5B14E",
"g  c #CAB64E",
"h  c #CCB84E",
"j  c #D0B14D",
"k  c #D3BC4E",
"l  c #CEBB52",
"z  c #CAB95A",
"x  c #C2B56E",
"c  c #C8BB73",
"v  c #D7C14F",
"b  c #DAC34E",
"n  c #D4C052",
"m  c #DAC452",
"M  c #D5C15D",
"N  c #E5CC4E",
"B  c #E8CF4C",
"V  c #ECD34D",
"C  c #F1D64C",
"Z  c #F4DA4D",
"A  c #FADE4D",
"S  c #E5CD52",
"D  c #FDE14D",
"F  c #3C5C97",
"G  c #3B5D9C",
"H  c #3E609B",
"J  c #365FA9",
"K  c #385FA8",
"L  c #3C62A4",
"P  c #3660AC",
"I  c #3961A9",
"U  c #3463B7",
"Y  c #3463B8",
"T  c #4A648D",
"R  c #546781",
"E  c #516B8C",
"W  c #5C7286",
"Q  c #456394",
"!  c #496791",
"~  c #4D6D97",
"^  c #44669B",
"/  c #486698",
"(  c #46699C",
")  c #4A6C9A",
"_  c #4E719B",
"`  c #52759B",
"'  c #54789F",
"]  c #597D9D",
"[  c #6B7D8C",
"{  c #7F7787",
"}  c #78798A",
"|  c #6F7D90",
" . c #797D90",
".. c #4368A1",
"X. c #486DA1",
"o. c #567CA2",
"O. c #817281",
"+. c #768B86",
"@. c #779698",
"#. c #5B82A4",
"$. c #5B86AA",
"%. c #5E8AAB",
"&. c #638BA3",
"*. c #618DAD",
"=. c #718CA5",
"-. c #6D94A6",
";. c #779CA5",
":. c #729AA9",
">. c #618FB1",
",. c #6292B6",
"<. c #6493B4",
"1. c #6C93B1",
"2. c #6596B8",
"3. c #669BBE",
"4. c #6C9DBB",
"5. c #739EBA",
"6. c #6DA0BD",
"7. c #689FC3",
"8. c #69A1C5",
"9. c #6AA2C5",
"0. c #6AA3C8",
"q. c #6AA5CA",
"w. c #6BA5CA",
"e. c #6CA6CB",
"r. c #6CA7CD",
"t. c #6CA8CD",
"y. c #6CA9CF",
"u. c #6DAAD1",
"i. c #6CABD3",
"p. c #6DACD3",
"a. c #6DADD5",
"s. c #6EAED6",
"d. c #6DAFD9",
"f. c #6EAFD8",
"g. c #6EB0D9",
"h. c None",
"j. c None",
"k. c #6FB1DC",
"l. c #6FB2DC",
"z. c #BDB484",
"x. c #BBB494",
"c. c #BFB998",
"v. c #9FA4AF",
"b. c #93A6B3",
"n. c #9AA9B2",
"m. c #A7A7A7",a
"M. c #ACADAE",
"N. c #BEBAA5",
"B. c #BCBCBC",
"V. c #C9C29D",
"C. c #FEBF10",
"Z. c #C8C5B8",
"A. c #FEBF10",
"S. c #CBCAC5",
"D. c #FEBF10",
"F. c #D4D3CA",
"G. c #CDD0D2",
"H. c #D6D6D3",
"J. c #DCDBDB",
"K. c #E5E5E5",
"L. c #EBEBEC",
"P. c #F5F4F5",
"I. c #FEFEFE",
/* pixels */
"h.h.h.h.h.h.h.h.h.h.h.h.h.h.h.w.a.h.h.h.h.h.h.h.h.h.h.h.h.h.h.h.h.h.h.h.",
"h.h.h.h.h.h.h.k.k.k.k.h.h.k.h.h.h.h.h.k.h.h.h.h.h.h.h.h.h.h.h.h.h.h.h.h.",
"h.h.h.h.h.h.8.*.*.%.e.t.<.$.,.t.h.h.y.w.u.h.h.h.h.h.h.h.h.h.h.h.h.h.h.h.",
"h.h.h.h.h.w.E G I L _ ) H K L ) %.#.) ) _ ,.a.h.h.h.h.h.h.h.h.h.h.h.h.h.",
"h.h.h.u.>.) I U U U U U Y Y Y U L I U Y U L o.y.k.h.h.h.h.h.h.h.h.h.h.h.",
"h.h.a.' L U Y U U U U U U U U U U U U U U U P #.f.h.h.h.h.h.h.h.h.h.h.h.",
"h.k.2.H U U U U U U U U U U U U U U U U U U Y ( 8.k.h.h.h.h.h.h.h.h.h.h.",
"h.k.*.K Y U U U U U U U Y U U Y U U U U U U U L %.k.h.h.h.h.h.h.h.h.h.h.",
"h.p.` P Y U U Y U Y U U U U U U U U U U U U U L <.h.h.h.h.h.h.h.h.h.h.h.",
"h.p.~ U U U U U U U U Y U Y Y U U U U U U U U U ( 9.j.h.h.h.h.h.h.h.h.h.",
"h.p._ U U U U U U U U U U Y U U U U U U U U U U L <.j.j.h.h.h.h.h.h.h.h.",
"h.h.%.I Y U U U U Y U U U U U U U Y U U U U U U L <.h.h.h.h.h.h.h.h.h.h.",
"h.h.8.( P Y U Y U U U U U U U U U U U Y U U U U _ y.j.j.h.h.h.h.h.h.h.h.",
"h.h.h.*.H Y U U U U U U U U U U Y U U U U U U U H ,.j.j.h.h.h.h.h.h.h.h.",
"h.h.h.w.( U U Y U U U U U U U U U U U U U U U U U H ,.d.h.h.h.h.h.h.h.h.",
"h.h.h.u.' U U U U U U U U U U U U U Y U U U U U U U _ j.h.h.h.h.h.h.h.h.",
"h.h.h.e.) U U U U U U U U U U U U U U U U U U U U U _ a.g.g.h.h.h.h.h.h.",
"h.h.h.h.] G U U U U U U U U U Y U U U U U U U U U U ( w.j.g.h.h.h.h.h.h.",
"h.h.h.p.` U U U U U U U U U U U U U U U Y Y U U U U I %.f.h.h.h.h.h.h.h.",
"h.h.h.w./ Y U U U U U U U U U U U U U U U Y Y Y U U P ` g.j.h.h.h.h.h.h.",
"h.h.h.t.) U U U U U U U U Y U U U Y U U U U U U U U P #.j.g.j.h.h.h.h.h.",
"h.h.h.h.%.L P U Y Y Y U U U U Y U U U U U Y U U U U L >.j.f.j.f.h.h.h.h.",
"h.h.h.h.t.~ P Y Y Y U U U U U U U U U Y U Y Y U U U U ( 8.j.j.j.h.h.h.h.",
"h.h.h.h.8.^ Y U Y Y Y U Y U U U U Y U U U U U U U U U P #.j.j.h.h.h.h.h.",
"h.h.h.h.e._ U U U U U U U U U U U U Y U U U U U U U Y U #.a.j.f.h.h.h.h.",
"h.h.h.h.d.<.L U U U U U Y U U Y U U U U U U U U U U U _ 8.f.j.j.h.h.h.h.",
"h.h.h.h.h.h.$.H U U U U U U U U U U U Y U U U U U U U L >.f.h.h.h.h.h.h.",
"h.h.h.h.h.h.<.H U U U U U U Y U Y U U U U U U U U U U U #.j.h.h.h.h.h.h.",
"h.h.h.h.h.h.#.P Y U U U U U Y U U U U Y U U U U U U U U _ 0.j.j.h.h.h.h.",
"h.h.h.h.h.k.8.^ U U U U U U U U U U U U U U U U U U U Y P #.j.h.h.h.h.h.",
"h.h.h.h.h.h.h._ U U U U U U U U Y U U U U U U U U U U U P #.h.j.h.h.h.h.",
"h.h.h.h.h.h.e.) U U U U U U U U U U U Y U U U U U U U U P ' f.h.h.h.h.h.",
"h.h.h.h.h.k.3.H Y U U U U U U U U U U U U U U U U Y U U U ( w.k.h.h.h.h.",
"h.h.h.h.h.h.a._ U U U Y U U Y U U Y U U U U U U U U U U U ) t.k.h.h.h.h.",
"h.h.h.h.h.h.h.%.( U U U U Y Y U U U U Y U U U U U U U Y I #.h.h.h.h.h.h.",
"h.h.h.h.h.h.h.a.#.L Y U U U U U U Y U U U U U U U Y U Y I $.a.h.h.h.h.h.",
"h.h.h.h.h.h.h.a._ U U U U U Y U U U Y U U U U U U U U Y U / e.h.h.h.h.h.",
"h.h.h.h.h.h.h.a.' U U U U U U U U U U Y U U U J U Y U U U ( e.h.h.h.h.h.",
"h.h.h.h.h.h.h.k.3.^ P U U Y U Y U U U P U Y J   X Q H U U G 3.k.h.h.h.h.",
"h.h.h.h.h.h.h.h.f.#.G U U U U U U U U H R E o N V g X L F G %.k.h.h.h.h.",
"h.h.h.h.h.h.h.h.w.) U U U U U U P F L r N N V D A A B w 6 T o.a.h.h.h.h.",
"h.h.h.h.h.h.h.k.,.L U U U U Y Y P 3 q V Z D b V v Z A b C e ! 8.h.h.h.h.",
"h.h.h.h.h.h.h.k.8.^ U U U Y I G W v D k v V 7 g 0 V Z 0 q   ! &.a.h.h.h.",
"h.h.h.h.h.h.h.h.a.%.G K Y U U F 6 A D B 9 c.A.Z.a m x Z.S.v.[ 8.h.h.h.h.",
"h.h.h.h.h.h.h.h.k.w.T U U U U T l V k M F.P.I.I.P.N.J.I.I.I.G.4.h.h.h.j.",
"h.h.h.h.h.h.h.h.f.>.L Y U U U / l Z f c.I.I.P.I.I.K.D.K.J.I.P.b.a.h.h.h.",
"h.h.h.h.h.h.h.h.u.` U U U Q E X b D m S.I.P.m.L.I.I.B.H.A.I.I.n.p.h.h.h.",
"h.h.h.h.h.h.h.h.a.' P U E 5 5 f C D m Z.I.I.L.I.I.P.M.L.I.I.I.b.i.h.h.h.",
"h.h.h.h.h.h.h.h.h.3...U o g 0 h C A Z z.P.I.I.I.I.H.9 c N.C.D.5.h.h.h.h.",
"h.h.h.h.h.h.h.h.h.h.,.H X k k B C A A S V.L.I.P.H.c Z Z B B t e.h.h.h.h.",
"h.h.h.h.h.h.h.h.h.k.w.T P o 4 q C D A A N x x.z.z Z C S Z B t u.h.j.h.h.",
"h.h.h.h.h.h.h.h.h.h.p.' P U Q k D V Z A A A V C D A V f 0 q i ;.i.j.h.h.",
"h.h.h.h.h.h.h.h.h.l.h.6.( P T n V 7 V A D A A A A A D A Z Z A z 4.k.h.k.",
"h.h.h.h.h.h.h.h.h.h.l.h.w.#.W b V q q q l V A D A D A D D Z N i 6.h.j.h.",
"h.h.h.h.h.h.h.h.h.h.h.h.h.h.:.b D D Z B k q q n N N B k w y @.0.d.h.j.j.",
"h.h.h.h.h.h.h.h.j.h.h.h.h.h.@.B A A D A D Z B l q 5 +.:.w.i.k.k.h.h.d.j.",
"h.h.h.h.h.h.h.h.h.h.h.8.| -.p D A A A A A A A Z p :.i.k.h.h.h.h.h.h.h.h.",
"h.h.h.h.h.h.h.h.l.i.h.[ @ # k D A A Z A A A D N   1.h.h.h.h.h.h.h.h.h.h.",
"h.h.h.h.h.h.h.h.k.j.j.<.# * : k Z A A Z A Z C 8 = $ 3.k.h.h.h.h.h.h.h.h.",
"h.h.h.h.h.h.h.h.j.j.j.i.} - 2 - , s j , j d > $ 1 * 1.h.h.h.h.h.h.h.h.h.",
"h.h.h.h.h.h.h.h.h.h.h.h.y.{ # + 1 * ; 1 - - 2 @ $ O.t.k.h.h.h.h.h.h.h.h.",
"h.h.h.h.h.h.h.h.h.h.h.d.h.i.8.=.& <  .% } O.% =.8.p.h.h.h.h.h.h.h.h.h.h.",
"h.h.h.h.h.h.h.h.h.h.d.j.j.d.k.d.0.i.f.0.a.i.0.f.f.l.h.h.h.h.h.h.h.h.h.h.",
"h.h.h.h.h.h.h.h.h.h.j.d.j.j.d.k.k.f.f.k.f.k.k.f.k.h.h.h.h.h.h.h.h.h.h.h."
};
