/* XPM */
static char *fdf86f5c17a642ffd35c4263343b9836M62bMfUy3MKlu026[] = {
/* columns rows colors chars-per-pixel */
"48 48 43 1 ",
"  c None",
". c #FEB705",
"X c #FEB805",
"o c #FEB806",
"O c #FEB906",
"+ c #FEBA07",
"@ c #FEBB08",
"# c #FEBC08",
"$ c #FEBC09",
"% c #FEBD09",
"& c #FEBE0A",
"* c #FEBF0A",
"= c #FEC00B",
"- c #FEC10B",
"; c #FEC10C",
": c #FEC20C",
"> c #FEC30D",
", c #FEC40D",
"< c #FEC40E",
"1 c #FEC50E",
"2 c #FEC60F",
"3 c #FEC70F",
"4 c #FEC710",
"5 c #FEC810",
"6 c #FFC911",
"7 c #FFCA11",
"8 c #FFCB12",
"9 c #FFCC13",
"0 c #FFCD13",
"q c #FFCD14",
"w c #FFCE14",
"e c #FFCF15",
"r c #FFD015",
"t c #FFD016",
"y c #FFD116",
"u c #FFD217",
"i c #FFD317",
"p c #FFD318",
"a c #FFD418",
"s c #FFD519",
"d c #FFD619",
"f c #FFD71A",
"g c #FFD81A",
/* pixels */
"                                                ",
"                                                ",
"                                                ",
"                                                ",
"                                                ",
"                                                ",
"      gffafffi                                  ",
"      ffffpppi                                  ",
"      ffafiipp                                  ",
"      fffipipe                                  ",
"      ffpppiii                                  ",
"      pifpiiii                                  ",
"      fiiiepei                                  ",
"      ppiiiiieeeee9ee                           ",
"      piiiepeeeee9e99                           ",
"      iieieeeeee9e989                           ",
"      iiieeiei9ee9998                           ",
"      eieieee9e999998                           ",
"      ieei9e99e999888                           ",
"      eii9ie9e9998888                           ",
"      ie9i99e99988848344333<                    ",
"      eee99e999887484343<3<3                    ",
"      ee9ee988887733833<3<<<                    ",
"      e9i9998888773833333<<3                    ",
"      e9e999888384333<33<<:3                    ",
"      9e99988884343333<<<:<:                    ",
"      e98888884844333<3<<:<:                    ",
"      99888883344333<<<::<::<:*:***             ",
"      998884844333<<3<:<<*<<******@             ",
"      998838344333<3<:<::<***:***@*             ",
"      888483443<3<<<:<<<:*<*****@**             ",
"      8884384333<3<<<<*<*:********o             ",
"      8843443<4<3<:<::<*:<***@**@@@             ",
"      843843333<<:<:::*<******@@@@@             ",
"      84343333<<:<<*:::******@@*@@@@oooXo.      ",
"      344333<<<<<<:<:******@*@@@@@ooooX.oo      ",
"      443333<<<:<::*<******@@*@@o@oooX....      ",
"      4333:<<::<*<*<*****@@*@@@oooooXX....      ",
"      33<<3<:<<:<*<*******@@@@@@oooXXX....      ",
"      33<3<:3:::<*******@@@@@@oo#oooXX....      ",
"      33<<<:<::::******@@*o*o#oooo........      ",
"      <33:<<:::**:****@**o*o#oooo.........      ",
"                                                ",
"                                                ",
"                                                ",
"                                                ",
"                                                ",
"                                                "
};
