/* XPM */
static char *_627899c9fa1451290d20e45557e8370RXlpQ7fmVlXPH6MH[] = {
/* columns rows colors chars-per-pixel */
"48 48 17 1 ",
"  c None",
". c #1C59B3",
"X c #1D59B3",
"o c #1B5AB7",
"O c #1C59B5",
"+ c #1C5AB5",
"@ c #1B5AB8",
"# c #1A5ABA",
"$ c #195BBC",
"% c #195CBC",
"& c #2F7AD6",
"* c #3079D6",
"= c #307AD6",
"- c #42A2F2",
"; c #42A3F2",
": c #43A3F2",
"> c #42A4F1",
/* pixels */
"                                                ",
"                                                ",
"                                                ",
"                                                ",
"                                                ",
"       ;*        ;*        ;*        ;*         ",
"     ;;;***    ;;;**&    ;;;**&    ;;;***       ",
"     ;;;***    ;;;***    ;;;***    ;;;***       ",
"    ;;;;****  ;;;;****  ;;;;****  ;;;;***=      ",
"    ;;;;****  ;;;;****  ;;;;****  ;;;;****      ",
"    ;;;;****  ;;;;****  ;;;;****  ;;;;****      ",
"    ;;;;****  ;;;;****  ;;;;****  ;;;;****      ",
"  XX;;;;****++;;;;****@@;;;;****$@;;;;****%%    ",
"  XX;;;;****++;;;;****o@;;;;****@$;;;;****%%    ",
"  XX;;;;****++;;;;****+@;;;;****$@;;;;****$$    ",
"  XX;;;;****++;;;;****@@;;;;****@$;;;;****$$    ",
"    ;;;;****  ;;;;****  ;;;;****  ;;;;****      ",
"    ;;;;****  ;;;;****  ;;;;****  ;;;;****      ",
"    ;;;;****  ;;;;****  ;;;;****  ;;;;****      ",
"    ;;;;****  ;;;;****  ;;;;****  ;;;;****      ",
"    ;;;;****  ;;;;****  ;;;;****  ;;;;****      ",
"    ;;;;****  ;;;;****  ;;;;****  ;;;;****      ",
"    ;;;;****  ;;;;****  ;;;;****  ;;;;****      ",
"    ;;;;****  ;;;;****  ;;;;****  ;;;;****      ",
"    ;;;;****  ;;;;****  ;;;;****  ;;;;****      ",
"    ;;;;****  ;;;;****  ;;;;****  ;;;;****      ",
"    ;;;;****  ;;;;****  ;;;;****  ;;;;****      ",
"    ;;;;****  ;;;;****  ;;;;****  ;;;;****      ",
"    ;;;;****  ;;;;****  ;;;;****  ;;;;****      ",
"    ;;;;****  ;;;;****  ;;;;****  ;;;;****      ",
"    ;;;;****  ;;;;****  ;;;;****  ;;;;****      ",
"    ;;;;****  ;;;;****  ;;;;****  ;;;;****      ",
"  XX;;;;****++;;;;****o@;;;;****@@;;;;****$$    ",
"  XX;;;;****++;;;;****o@;;;;****@%;;;;****$$    ",
"  XX;;;;****++;;;;****o@;;;;****$@;;;;****$$    ",
"  XX;;;;****++;;;;****o@;;;;****@$;;;;****$$    ",
"    ;;;;****  ;;;;****  ;;;;****  ;;;;****      ",
"    ;;;;****  ;;;;****  ;;;;****  ;;;;****      ",
"    ;;;;****  ;;;;****  ;;;;****  ;;;;****      ",
"    ;;;;****  ;;;;***=  ;;;;***=  ;;;;****      ",
"     ;;;***    ;;;***    ;;;***    ;;;***       ",
"     ;;;***    ;;;**=    ;;;**=    ;;;***       ",
"       ;*        ;=        ;*        ;*         ",
"                                                ",
"                                                ",
"                                                ",
"                                                ",
"                                                "
};
