/* XPM */
static char *b11b91fd78064761bbd8b98e883fa386PnMdL3g3zRzyNd3X[] = {
/* columns rows colors chars-per-pixel */
"64 64 23 1 ",
"  c None",
". c #8D6C9E",
"X c #8D6C9F",
"o c #8D6D9F",
"O c #8E6C9F",
"+ c #99759E",
"@ c #9A769F",
"# c #8D6CA0",
"$ c #9B78A1",
"% c #9C78A1",
"& c #B7899C",
"* c #B78A9D",
"= c #BE94A5",
"- c #C4939C",
"; c #C5959D",
": c #C899A1",
"> c #C89AA1",
", c #CDA1A7",
"< c #C8A1B3",
"1 c #C9A3B4",
"2 c #D5AAB1",
"3 c #DAB0B8",
"4 c #DBB2BA",
/* pixels */
"                                                                ",
"                                                                ",
"                                                                ",
"                                                                ",
"   XXXXXXXXXXXXXXXXXXXXXXXXXXXXXXXXXXXXXXXXXXXXXXXXXXXXXXXXXo   ",
"  XXXXXXXXXXXXXXXXXXXXXXXXXXXXXXXXXXXXXXXXXXXXXXXXXXXXXXXXXXXX  ",
"  XX144444<XX14444444444444444<XX144444444444444441XX144444<XX  ",
"  XX2344444XX444444444444444444XX444444444444444444XX4444442XX  ",
"  XX,,,,,,,XX,,,,,,,,,,,,,,,,,,XX,,,,,,,,,,,,,,,,,,XX,,,,,,,XX  ",
"  XX,,,,,,,XX,,,,,,,,,,,,,,,,,,XX,,,,,,,,,,,,,,,,,,XX,,,,,,,XX  ",
"  XX,,,,,,,XX,,,,,,,,,,,,,,,,,,XX,,,,,,,,,,,,,,,,,,XX,,,,,,,XX  ",
"  XX,,,,,,,XX,,,,,,,,,,,,,,,,,,XX,,,,,,,,,,,,,,,,,,XX,,,,,,,XX  ",
"  XX,,,,,,,XX,,,,,,,,,,,,,,,,,,XX,,,,,,,,,,,,,,,,,,XX,,,,,,,XX  ",
"  XX,,,,,,,XX,,,,,,,,,,,,,,,,,,XX,,,,,,,,,,,,,,,,,,XX,,,,,,,XX  ",
"  XX,,,,,,,XX,,,,,,,,,,,,,,,,,,XX,,,,,,,,,,,,,,,,,,XX,,,,,,,XX  ",
"  XX=,,,,,=XX=,,,,,,,,,,,,,,,,=XX=,,,,,,,,,,,,,,,,=XX=,,,,,=XX  ",
"  XXXXXXXXXXXXXXXXXXXXXXXXXXXXXXXXXXXXXXXXXXXXXXXXXXXXXXXXXXXX  ",
"  XXXXXXXXXXXXXXXXXXXXXXXXXXXXXXXXXXXXXXXXXXXXXXXXXXXXXXXXXXXX  ",
"  XX1444444444444441XX14444444444444444<XX14444444444444444<XX  ",
"  XX2444444444444444XX444444444444444444XX444444444444444442XX  ",
"  XX,,,,,,,,,,,,,,,,XX,,,,,,,,,,,,,,,,,,XX,,,,,,,,,,,,,,,,,,XX  ",
"  XX,,,,,,,,,,,,,,,,XX,,,,,,,,,,,,,,,,,,XX,,,,,,,,,,,,,,,,,,XX  ",
"  XX,,,,,,,,,,,,,,,,XX,,,,,,,,,,,,,,,,,,XX,,,,,,,,,,,,,,,,,,XX  ",
"  XX,,,,,,,,,,,,,,,,XX,,,,,,,,,,,,,,,,,,XX,,,,,,,,,,,,,,,,,,XX  ",
"  XX,,,,,,,,,,,,,,,,XX,,,,,,,,,,,,,,,,,,XX,,,,,,,,,,,,,,,,,,XX  ",
"  XX,,,,,,,,,,,,,,,,XX,,,,,,,,,,,,,,,,,,XX,,,,,,,,,,,,,,,,,,XX  ",
"  XX,,,,,,,,,,,,,,,,XX,,,,,,,,,,,,,,,,,,XX,,,,,,,,,,,,,,,,,,XX  ",
"  XX,,,,,,,,,,,,,,,,XX,,,,,,,,,,,,,,,,,,XX,,,,,,,,,,,,,,,,,,XX  ",
"  XX,,,,,,,,,,,,,,,,XX,,,,,,,,,,,,,,,,,,XX,,,,,,,,,,,,,,,,,,XX  ",
"  XX=,,,,,,,,,,,,,,=XX=,,,,,,,,,,,,,,,,=XX=,,,,,,,,,,,,,,,,=XX  ",
"  XXXXXXXXXXXXXXXXXXXXXXXXXXXXXXXXXXXXXXXXXXXXXXXXXXXXXXXXXXX#  ",
"  XXXXXXXXXXXXXXXXXXXXXXXXXXXXXXXXXXXXXXXXXXXXXXXXXXXXXXXXXXXX  ",
"  XX<44444<X#<4444444444444444<XX14444444444444444<XX144444<.#  ",
"  XX2344444Xo444444444444444444XX444444444444444444XX4444442..  ",
"  oX,,,,,,,Xo,,,,,,,,,,,,,,,,,,XX,,,,,,,,,,,,,,,,,,XX,,,,,,,XX  ",
"  o#,,,,,,,XX,,,,,,,,,,,,,,,,,,XX,,,,,,,,,,,,,,,,,,XX,,,,,,,XX  ",
"  XX,,,,,,,XX,,,,,,,,,,,,,,,,,,XX,,,,,,,,,,,,,,,,,,XX,,,,,,,XX  ",
"  XX,,,,,,,XX,,,,,,,,,,,,,,,,,,XX,,,,,,,,,,,,,,,,,,XX,,,,,,,XX  ",
"  XX,,,,,,,XX,,,,,,,,,,,,,,,,,,XX,,,,,,,,,,,,,,,,,,XX,,,,,,,XX  ",
"  XX,,,,,,,XX,,,,,,,,,,,,,,,,,,XX,,,,,,,,,,,,,,,,,,XX,,,,,,,XX  ",
"  XX,,,,,,,XX,,,,,,,,,,,,,,,,,,#X,,,,,,,,,,,,,,,,,,#.,,,,,,,XX  ",
"  XX,,,,,,,XX,,,,,,,,,,,,,,,,,,#X,,,,,,,,,,,,,,,,,,.#,,,,,,,XX  ",
"  XX,,,,,,,XX,,,,,,,,,,,,,,,,,,#X,,,,,,,,,,,,,,,,,,#.,,,,,,,XX  ",
"  XX=,,,,,=XX=,,,,,,,,,,,,,,,,:#X=,,,,,,,,,,,,,,,,=.#=,,,,,=XX  ",
"  XXXXXXXXXXXXXXXXXXXXXXXXXX####XXXXXXXXXXXXXXXX.#.#.#.#.#..X#  ",
"  XXXXXXXXXXXXXXXXXXXXXXXXXXX##OXXXXXXXXXXXXXXXX#.#.#.#.#.#.XX  ",
"  XX<44444444444444<oo<4444444444444444<XX14444444444444444<XX  ",
"  XX2444444444444444X#444444444444444444XX444444444444444442XX  ",
"  XX,,,,,,,,,,,,,,,,#.,,,,,,,,,,,,,,,,,,##,,,,,,,,,,,,,,,,,,##  ",
"  XX,,,,,,,,,,,,,,,,.#,,,,,,,,,,,,,,,,,,##,,,,,,,,,,,,,,,,,,##  ",
"  XX,,$$,,,$$,,,%$,,#.,,,%$,,,$$,,,%%,,,XX,,,%%,,,%$,,>$%,,,X#  ",
"  XX,,XX,,,XX,,,.#,,.#,,,.#,,>#.,,,..,,,XX,,,#O>,,#.,,,.#,,,X#  ",
"  XX:;XX---.X---..--XX---#.---.#---#.---XX;;-..---..---#X-;:XX  ",
"  XX-;@@---@@---@@--XX---@@---+@---@@---XX---@$---@@---+@---XX  ",
"  XX---------------;XX-----------------;XX----------------;-XX  ",
"  XX&--------------&XX&----------------&XX&---------------;*XX  ",
"  XXXXXX..XXXXXXXXXXXXXXXXXXXXXX..XXXXXXXXXXXXXXXXXXXXXXXXXXX#  ",
"   XXXXX#.XXXXXXXXXXXXXXXXXXXXXX.#X#XXXXOXXXXXXXXXXXXXXXXXXX#   ",
"                                                                ",
"                                                                ",
"                                                                ",
"                                                                ",
"                                                                ",
"                                                                "
};
